<?xml version="1.0" encoding="utf-8"?>
<!-- Generator: Adobe Illustrator 27.7.0, SVG Export Plug-In . SVG Version: 6.00 Build 0)  -->
<svg version="1.1" id="Camada_1" xmlns="http://www.w3.org/2000/svg" xmlns:xlink="http://www.w3.org/1999/xlink" x="0px" y="0px"
	 viewBox="0 0 1920 1080" style="enable-background:new 0 0 1920 1080;" xml:space="preserve">
<style type="text/css">
	.st0{fill:#1D1D21;}
</style>
<g>
	<path class="st0" d="M704.8,449.5c-1.5-0.2-3.1-0.3-4.8-0.3c-0.2,0-0.4,0-0.6,0c-0.1,0-0.2,0-0.3,0h-0.6c-0.9-0.1-1.8-0.1-2.7-0.1
		c-1,0-1.9,0-2.6,0.1H693c-0.2,0-0.4,0-0.5,0c-1.9,0-3.8,0.2-5.6,0.4c-46.5,4.4-82,43-82,90.4s36.1,86,82,90.5
		c2.3,0.2,4.8,0.4,7.2,0.4h0.4l0.4,0h2l0.4,0h0.4c2.4,0,4.8-0.2,7.1-0.4c45.9-4.5,82-43.6,82-90.5S751.3,453.9,704.8,449.5
		L704.8,449.5z M646.1,583.7c0,0.5,0,1,0.1,1.5c0,0.6,0.1,1.2,0.2,1.9c0.1,0.5,0.1,0.9,0.2,1.4c0.2,1.7,0.6,3.4,1,5
		c0.1,0.5,0.2,0.9,0.4,1.4c-15.3-13.4-25-33.1-25-54.9s9.7-42.1,25.2-55.4c-0.2,0.8-0.4,1.6-0.6,2.5c-0.2,0.7-0.4,1.5-0.5,2.2
		c-0.2,0.8-0.3,1.5-0.4,2.4c-0.2,1.2-0.3,2.4-0.4,3.6c0,0,0,0.1,0,0.2c-0.1,1.2-0.2,2.4-0.2,3.6v82C646,581.9,646,582.8,646.1,583.7
		L646.1,583.7z M686.9,611.8c-0.1,0-0.1,0-0.2-0.1c-1.6-0.5-3.2-1-4.6-1.8c-1.6-0.8-3.2-1.7-4.6-2.7c-2.7-1.9-5.1-4.2-7.1-6.8
		c-0.6-0.7-1-1.4-1.5-2.1c-0.9-1.4-1.7-2.9-2.4-4.5c-0.5-1.1-0.9-2.3-1.3-3.5c-0.3-1-0.6-2-0.8-3c-0.2-1.2-0.4-2.5-0.5-3.8
		c-0.1-0.9-0.1-1.8-0.1-2.6v-82c0-1.4,0.1-2.7,0.3-4c0-0.6,0.1-1.1,0.2-1.7c0.1-0.7,0.3-1.4,0.4-2.1c0,0,0-0.1,0-0.2
		c0.2-0.7,0.4-1.4,0.6-2.1c0.1-0.3,0.2-0.5,0.3-0.8c0.2-0.7,0.5-1.3,0.8-1.9c0.7-1.6,1.5-3.1,2.4-4.5c0.5-0.8,1-1.5,1.5-2.1
		c0.4-0.6,1-1.3,1.5-1.9c0.2-0.3,0.4-0.5,0.6-0.7c0.2-0.3,0.5-0.5,0.7-0.7l0.4-0.4c0.1-0.2,0.3-0.3,0.4-0.4c0.4-0.4,0.8-0.8,1.3-1.2
		c0.1-0.1,0.2-0.2,0.3-0.2c0.6-0.6,1.2-1,1.9-1.4c1.3-1,2.8-1.8,4.2-2.5c0.3-0.1,0.6-0.3,0.9-0.4c0.7-0.3,1.3-0.6,2.1-0.8
		c0.3-0.1,0.6-0.2,0.9-0.3c0.4-0.2,0.8-0.3,1.2-0.4L686.9,611.8L686.9,611.8z M728,581c0,0.9,0,1.8-0.1,2.6c0,0.8-0.1,1.6-0.3,2.3
		c0,0.4-0.1,0.7-0.2,1c-0.1,0.7-0.3,1.3-0.4,2c-0.2,0.8-0.4,1.7-0.8,2.5c-0.2,0.8-0.6,1.6-1,2.4c-0.3,0.8-0.7,1.6-1.1,2.3
		c-0.4,0.8-0.8,1.5-1.3,2.2c-0.4,0.5-0.7,1-1,1.5c-0.6,0.9-1.3,1.8-2.1,2.5c-0.6,0.6-1.2,1.2-1.8,1.8c-0.1,0-0.1,0.1-0.2,0.2
		c-0.6,0.5-1.1,1-1.6,1.4c-1.2,0.9-2.3,1.8-3.6,2.5c-0.3,0.2-0.6,0.4-0.9,0.6c-1.3,0.8-2.7,1.4-4.2,2c-0.4,0.2-0.7,0.3-1.1,0.4
		c-0.2,0.1-0.4,0.2-0.7,0.2c-0.4,0.1-0.7,0.2-1,0.3V468.3c0.6,0.1,1.1,0.3,1.5,0.5c2.3,0.8,4.4,1.8,6.4,3c0.7,0.4,1.4,0.9,2,1.4
		c0.7,0.5,1.4,1.1,2.1,1.7c0.2,0.2,0.4,0.3,0.5,0.5c0.4,0.4,0.9,0.8,1.2,1.1c0.4,0.3,0.7,0.7,1.1,1.1c0.6,0.6,1.1,1.2,1.5,1.8
		c0.6,0.8,1.2,1.6,1.8,2.4c0.5,0.8,1,1.7,1.5,2.6c0.4,0.8,0.8,1.5,1.1,2.3c0.2,0.5,0.4,1,0.6,1.5c0.1,0.3,0.2,0.6,0.3,0.9
		c0.2,0.5,0.4,1.1,0.5,1.6c0.2,0.4,0.2,0.8,0.3,1.3c0.1,0.4,0.2,0.9,0.3,1.4c0.1,0.6,0.2,1.3,0.2,1.9c0.2,1.3,0.3,2.6,0.3,3.9
		L728,581L728,581z M743.9,594.9c0.3-1.1,0.6-2.2,0.8-3.4c0.2-1.1,0.4-2.3,0.6-3.4c0.2-1,0.3-2,0.4-3c0-0.5,0.1-0.9,0.1-1.4
		c0-0.9,0.1-1.8,0.1-2.7v-82c0-1.2,0-2.4-0.2-3.6c0,0,0-0.1,0-0.2c-0.1-1.2-0.2-2.4-0.4-3.6c-0.2-1.1-0.4-2.3-0.7-3.5
		c0,0,0-0.1,0-0.1c-0.2-1.1-0.6-2.3-0.9-3.4C759.2,498,769,517.8,769,540S759.2,581.5,743.9,594.9L743.9,594.9z"/>
	<g>
		<g>
			<path class="st0" d="M1003.5,491.9v96.2h-17.8l-2.2-12.2c-7.3,8.9-17.2,13.3-29.7,13.3c-11.3,0-20.4-3.5-27.4-10.5
				c-7-7-10.5-18.3-10.5-33.8v-53h20.3v50.9c0,9.4,1.9,16.5,5.6,21.4c3.8,4.9,9.3,7.3,16.7,7.3c7.8,0,13.8-2.8,18.2-8.6
				c4.4-5.7,6.6-13.5,6.6-23.4v-47.7H1003.5L1003.5,491.9z"/>
			<path class="st0" d="M1157,501c6.6,6.8,10,17.8,10,32.8v54.3h-20.3V534c0-8.4-1.7-14.8-5.1-19.2c-3.4-4.4-8.4-6.6-15-6.6
				c-7,0-12.6,2.5-16.6,7.4c-4.1,4.9-6.1,11.7-6.1,20.4v52h-20.5V534c0-8.5-1.7-14.9-5.2-19.3c-3.4-4.3-8.5-6.5-15.1-6.5
				s-12.4,2.6-16.4,7.7c-4.1,5.1-6.1,12-6.1,20.7v51.5h-20.3v-96.2h17.7l2.2,12.6c6.9-9,16.3-13.6,28.2-13.7
				c6.8,0,12.7,1.5,17.8,4.3c5.1,2.9,9.1,7.3,11.8,13.2c3.4-5.5,7.8-9.8,13.3-12.9s12.1-4.6,19.9-4.6
				C1141.8,490.8,1150.3,494.2,1157,501L1157,501z"/>
			<path class="st0" d="M1209.4,538.9l-34-47h23.7l23.1,32.5l23.5-32.5h22.2l-34.2,47l36.3,49.2h-23.7l-25.4-34.9l-25.6,34.9h-22
				L1209.4,538.9L1209.4,538.9z"/>
			<path class="st0" d="M908.5,571.6v17.7h-22.9c-11.3,0-20.4-3.5-27.4-10.5c-7-7-10.5-18.3-10.5-33.8v-53h20.3v50.9
				c0,9.4,1.9,16.5,5.6,21.4c3.8,4.9,9.3,7.3,16.7,7.3L908.5,571.6L908.5,571.6z"/>
		</g>
	</g>
</g>
</svg>
