<?xml version="1.0" encoding="utf-8"?>
<!-- Generator: Adobe Illustrator 27.7.0, SVG Export Plug-In . SVG Version: 6.00 Build 0)  -->
<svg version="1.1" id="Camada_1" xmlns="http://www.w3.org/2000/svg" xmlns:xlink="http://www.w3.org/1999/xlink" x="0px" y="0px"
	 viewBox="0 0 1920 1080" style="enable-background:new 0 0 1920 1080;" xml:space="preserve">
<style type="text/css">
	.st0{fill:#401689;}
	.st1{fill:#00FFEE;}
	.st2{fill:#6E05FF;}
	.st3{fill:#00B7FF;}
	.st4{fill:#1D1D21;}
</style>
<g>
	<g>
		<path class="st0" d="M605,540c0,49.8,40,90.2,89.6,90.9c-24.5-0.7-44.1-20.8-44.1-45.4v-90.9c0-24.2,19-44.1,42.9-45.4
			C644.3,450.5,605,490.6,605,540L605,540z"/>
		<path class="st1" d="M697.3,630.9c49.6-0.7,89.6-41.2,89.6-90.9c0-49.3-39.3-89.5-88.3-90.8c23.9,1.3,42.8,21.1,42.8,45.4v90.9
			C741.4,610.1,721.7,630.2,697.3,630.9z"/>
		<path class="st2" d="M650.5,494.5v90.9c0,24.6,19.6,44.7,44.1,45.4c0.5,0,0.9,0,1.3,0V449c-0.9,0-1.7,0-2.6,0.1
			C669.4,450.5,650.4,470.3,650.5,494.5L650.5,494.5z"/>
		<path class="st3" d="M695.9,449.1V631c0.5,0,0.9,0,1.4,0c24.5-0.7,44.1-20.8,44.1-45.4v-90.9c0-24.2-18.9-44.1-42.8-45.4
			C697.7,449.1,696.8,449.1,695.9,449.1L695.9,449.1z"/>
	</g>
	<g>
		<g>
			<path class="st4" d="M1003.5,491.9v96.2h-17.8l-2.2-12.2c-7.3,8.9-17.2,13.3-29.7,13.3c-11.3,0-20.4-3.5-27.4-10.5
				c-7-7-10.5-18.3-10.5-33.8v-53h20.3v50.9c0,9.4,1.9,16.5,5.6,21.4c3.8,4.9,9.3,7.3,16.7,7.3c7.8,0,13.8-2.8,18.2-8.6
				c4.4-5.7,6.6-13.5,6.6-23.4v-47.7L1003.5,491.9L1003.5,491.9z"/>
			<path class="st4" d="M1157,501c6.6,6.8,10,17.8,10,32.8v54.3h-20.3V534c0-8.4-1.7-14.8-5.1-19.2c-3.4-4.4-8.4-6.6-15-6.6
				c-7,0-12.6,2.5-16.6,7.4c-4.1,4.9-6.1,11.7-6.1,20.4v52h-20.5V534c0-8.5-1.7-14.9-5.2-19.3c-3.4-4.3-8.5-6.5-15.1-6.5
				s-12.4,2.6-16.4,7.7c-4.1,5.1-6.1,12-6.1,20.7v51.5h-20.3v-96.2h17.7l2.2,12.6c6.9-9,16.3-13.6,28.2-13.7
				c6.8,0,12.7,1.5,17.8,4.3c5.1,2.9,9.1,7.3,11.8,13.2c3.4-5.5,7.8-9.8,13.3-12.9s12.1-4.6,19.9-4.6
				C1141.8,490.8,1150.3,494.2,1157,501L1157,501z"/>
			<path class="st4" d="M1209.4,538.9l-34-47h23.7l23.1,32.5l23.5-32.5h22.2l-34.2,47l36.3,49.2h-23.7l-25.4-34.9l-25.6,34.9h-22
				L1209.4,538.9L1209.4,538.9z"/>
			<path class="st4" d="M908.5,571.6v17.7h-22.9c-11.3,0-20.4-3.5-27.4-10.5c-7-7-10.5-18.3-10.5-33.8v-53h20.3v50.9
				c0,9.4,1.9,16.5,5.6,21.4c3.8,4.9,9.3,7.3,16.7,7.3L908.5,571.6L908.5,571.6z"/>
		</g>
	</g>
</g>
</svg>
