<?xml version="1.0" encoding="UTF-8"?>
<svg id="Camada_1" data-name="Camada 1" xmlns="http://www.w3.org/2000/svg" viewBox="0 0 500 500">
  <defs>
    <style>
      .cls-1 {
        fill: #f7f7f7;
      }

      .cls-1, .cls-2, .cls-3, .cls-4, .cls-5 {
        stroke-width: 0px;
      }

      .cls-2 {
        fill: #6e05ff;
      }

      .cls-3 {
        fill: #20e0d2;
      }

      .cls-4 {
        fill: #fff;
      }

      .cls-5 {
        fill: #00b7ff;
      }
    </style>
  </defs>
  <rect class="cls-1" x="-.78" y="-.78" width="501.55" height="501.55"/>
  <g>
    <path class="cls-3" d="m163,257.03l-46.61-46.61c-6.06-6.06-15.88-6.06-21.94,0l-35.13,35.13c-6.06,6.06-6.06,15.88,0,21.94l46.63,46.63-.02.02,28.43,28.44c15.82,15.82,41.46,15.82,57.28.01l28.46-28.44-57.1-57.11h0Z"/>
    <rect class="cls-4" x="151.19" y="228.5" width="80.7" height=".02" transform="translate(-105.48 202.37) rotate(-45)"/>
    <path class="cls-5" d="m405.55,150.6c-6.06-6.06-15.88-6.06-21.94,0l-106.96,106.96h0s-56.55,56.55-56.55,56.55l.02.02h0s.49.5.49.5l-.02.02,27.93,27.93c15.82,15.82,41.48,15.82,57.3,0l134.88-134.91c6.06-6.06,6.06-15.88,0-21.94l-35.13-35.13Z"/>
    <path class="cls-2" d="m338.02,196.19l-46.1-46.1c-6.06-6.06-15.88-6.06-21.94,0l-49.9,49.9-57.07,57.06h-.01s0,0,0,0l57.1,57.11h0s-.02-.03-.02-.03l56.55-56.55,61.38-61.38Z"/>
  </g>
</svg>