<?xml version="1.0" encoding="UTF-8"?>
<svg id="Camada_1" data-name="Camada 1" xmlns="http://www.w3.org/2000/svg" viewBox="0 0 500 500">
  <defs>
    <style>
      .cls-1 {
        fill: #f7f7f7;
      }

      .cls-1, .cls-2, .cls-3, .cls-4, .cls-5 {
        stroke-width: 0px;
      }

      .cls-2 {
        fill: #6e05ff;
      }

      .cls-3 {
        fill: #401689;
      }

      .cls-4 {
        fill: #20e0d2;
      }

      .cls-5 {
        fill: #00b7ff;
      }
    </style>
  </defs>
  <rect class="cls-1" x="-.78" y="-.78" width="501.55" height="501.55"/>
  <g>
    <path class="cls-4" d="m263.28,183.72l65.19,30.01,39.79-18.32c15.33-7.06,15.33-28.84,0-35.9l-104.98-48.33c-9.54-4.39-20.55-4.33-30.04.17l-101.7,48.26c-15.05,7.14-15.05,28.57,0,35.71l38.81,18.42,62.89-29.84c9.49-4.51,20.5-4.57,30.04-.17Z"/>
    <path class="cls-2" d="m368.26,232.05l-39.79-18.32-65.19,30.01c-9.54,4.4-20.55,4.33-30.04-.17l-62.89-29.84-38.81,18.42c-15.05,7.14-15.05,28.57,0,35.71l38.81,18.42,62.89-29.84c9.5-4.51,20.5-4.57,30.04-.17l65.19,30.01,39.79-18.32c15.33-7.06,15.33-28.84,0-35.9Z"/>
    <path class="cls-5" d="m263.28,243.74l65.19-30.01-65.19-30.01c-9.54-4.4-20.55-4.33-30.04.17l-62.89,29.84,62.89,29.84c9.5,4.51,20.5,4.57,30.04.17Z"/>
    <path class="cls-5" d="m233.24,316.11l-62.89-29.84-38.81,18.42c-15.05,7.14-15.05,28.57,0,35.71l101.7,48.26c9.5,4.5,20.5,4.57,30.04.17l104.98-48.33c15.33-7.06,15.33-28.84,0-35.9l-39.79-18.32-65.19,30.01c-9.54,4.4-20.55,4.33-30.04-.17Z"/>
    <path class="cls-3" d="m233.23,256.43l-62.89,29.84,62.89,29.84c9.49,4.5,20.5,4.57,30.04.17l65.19-30.01-65.19-30.01c-9.54-4.4-20.55-4.33-30.04.17Z"/>
  </g>
</svg>