<?xml version="1.0" encoding="UTF-8"?>
<svg id="Camada_1" data-name="Camada 1" xmlns="http://www.w3.org/2000/svg" viewBox="0 0 500 500">
  <defs>
    <style>
      .cls-1 {
        fill: #f7f7f7;
      }

      .cls-1, .cls-2, .cls-3, .cls-4, .cls-5, .cls-6, .cls-7 {
        stroke-width: 0px;
      }

      .cls-2 {
        fill: #6e05ff;
      }

      .cls-3 {
        fill: #375eff;
      }

      .cls-4 {
        fill: #401689;
      }

      .cls-5 {
        fill: #20e0d2;
      }

      .cls-6 {
        fill: #10cce9;
      }

      .cls-7 {
        fill: #00b7ff;
      }
    </style>
  </defs>
  <rect class="cls-1" x="-.78" y="-.78" width="501.55" height="501.55"/>
  <g>
    <path class="cls-5" d="m199.76,313.46c-1.08-7.51-1.28-14.94-.77-22.22-26.68-15.33-46.35-42.24-51.09-75.06-.39-2.71-.58-5.4-.75-8.09-36.43,20.33-58.48,61.55-52.17,105.31,8.18,56.68,60.77,96,117.45,87.82,13.68-1.97,26.31-6.59,37.55-13.17-26.25-15.41-45.53-42.12-50.21-74.58Z"/>
    <path class="cls-2" d="m353.93,208.76c-2.48,35.09-22.76,66.24-52.93,83.09,2.64,39.95-17.93,76.81-51.02,96.2,19.58,11.5,43.01,16.73,67.23,13.23,56.68-8.18,96-60.77,87.82-117.45-4.74-32.82-24.41-59.74-51.1-75.06Z"/>
    <path class="cls-4" d="m300.99,291.85c-10.76,6.01-22.72,10.28-35.65,12.14-23.86,3.45-46.95-1.61-66.36-12.75-.51,7.28-.32,14.71.77,22.22,4.69,32.46,23.97,59.18,50.21,74.58,33.09-19.38,53.66-56.25,51.02-96.2Z"/>
    <path class="cls-7" d="m353.16,186.54c-8.18-56.68-60.77-96-117.45-87.81-53.97,7.79-92.1,55.85-88.57,109.36,10.76-6.01,22.72-10.28,35.65-12.14,24.22-3.5,47.66,1.74,67.23,13.23,11.23-6.58,23.87-11.19,37.55-13.17,23.86-3.44,46.95,1.61,66.35,12.75.52-7.28.32-14.71-.77-22.22Z"/>
    <path class="cls-6" d="m198.99,291.24c2.43-34.36,21.9-64.99,51.04-82.06-19.58-11.5-43.01-16.73-67.23-13.23-12.93,1.87-24.89,6.14-35.65,12.14.18,2.69.36,5.38.75,8.09,4.74,32.82,24.41,59.74,51.09,75.06Z"/>
    <path class="cls-3" d="m250.03,209.18c26.25,15.41,45.53,42.12,50.21,74.58.39,2.71.58,5.4.75,8.09,30.17-16.84,50.45-47.99,52.93-83.09-19.4-11.14-42.49-16.2-66.36-12.75-13.68,1.97-26.31,6.59-37.55,13.17Z"/>
    <path class="cls-2" d="m250.03,209.18c-29.14,17.07-48.61,47.7-51.04,82.06,19.4,11.14,42.49,16.2,66.36,12.75,12.93-1.87,24.89-6.14,35.65-12.14-.18-2.69-.36-5.38-.75-8.09-4.69-32.46-23.97-59.18-50.21-74.58Z"/>
  </g>
</svg>