<?xml version="1.0" encoding="UTF-8"?>
<svg id="Camada_1" data-name="Camada 1" xmlns="http://www.w3.org/2000/svg" viewBox="0 0 500 500">
  <defs>
    <style>
      .cls-1 {
        fill: #f7f7f7;
      }

      .cls-1, .cls-2, .cls-3, .cls-4 {
        stroke-width: 0px;
      }

      .cls-2 {
        fill: #6e05ff;
      }

      .cls-3 {
        fill: #20e0d2;
      }

      .cls-4 {
        fill: #00b7ff;
      }
    </style>
  </defs>
  <rect class="cls-1" x="-.78" y="-.78" width="501.55" height="501.55"/>
  <g>
    <path class="cls-3" d="m200.13,298.43v-29.44c0-5.06,4.1-9.16,9.16-9.16h119V127.79c0-11.88-9.63-21.5-21.51-21.5h-158.29c-11.87,0-21.5,9.63-21.5,21.5v158.29c0,11.88,9.63,21.5,21.5,21.5h60.8c-5.06,0-9.16-4.1-9.16-9.15Z"/>
    <path class="cls-2" d="m209.29,330.56h154.57c5.05,0,9.16,4.1,9.16,9.16v44.84c0,5.05-4.1,9.16-9.16,9.16h-154.58c-5.05,0-9.15-4.1-9.15-9.15v-44.85c0-5.05,4.1-9.16,9.16-9.16Z"/>
    <path class="cls-4" d="m363.86,259.83h-35.58v47.76h35.58c5.05,0,9.15-4.1,9.15-9.15v-29.44c0-5.06-4.1-9.16-9.15-9.16Z"/>
    <path class="cls-4" d="m209.29,259.83c-5.06,0-9.16,4.1-9.16,9.16v29.44c0,5.06,4.1,9.15,9.16,9.15h119v-47.76h-119Z"/>
  </g>
</svg>