<?xml version="1.0" encoding="UTF-8"?>
<svg id="Camada_1" data-name="Camada 1" xmlns="http://www.w3.org/2000/svg" viewBox="0 0 500 500">
  <defs>
    <style>
      .cls-1 {
        fill: #f7f7f7;
      }

      .cls-1, .cls-2, .cls-3, .cls-4 {
        stroke-width: 0px;
      }

      .cls-2 {
        fill: #6e05ff;
      }

      .cls-3 {
        fill: #20e0d2;
      }

      .cls-4 {
        fill: #00b7ff;
      }
    </style>
  </defs>
  <rect class="cls-1" x="-.78" y="-.78" width="501.55" height="501.55"/>
  <g>
    <path class="cls-3" d="m291.58,141.44c-41.46-41.46-108.68-41.46-150.14,0-41.46,41.46-41.46,108.68,0,150.14,18.29,18.29,41.62,28.02,65.5,30.18l-26.7-97.37c-7.13-25.98,16.57-49.91,42.62-43.05l98.95,26.07c-2.06-24.05-11.82-47.57-30.23-65.97Z"/>
    <path class="cls-2" d="m363.58,218.42l-41.78-11.01c2.59,30.13-7.17,61.12-30.23,84.17-23.17,23.17-54.36,32.91-84.64,30.18l11.57,42.17c7.1,25.86,39.47,34.44,58.43,15.47l102.46-102.46c19.08-19.08,10.27-51.65-15.81-58.52Z"/>
    <path class="cls-4" d="m222.86,181.35c-26.05-6.86-49.74,17.07-42.62,43.05l26.7,97.37c30.28,2.73,61.46-7.01,84.64-30.18,23.06-23.06,32.81-54.04,30.23-84.17l-98.95-26.07Z"/>
  </g>
</svg>