<?xml version="1.0" encoding="utf-8"?>
<!-- Generator: Adobe Illustrator 27.7.0, SVG Export Plug-In . SVG Version: 6.00 Build 0)  -->
<svg version="1.1" id="Camada_1" xmlns="http://www.w3.org/2000/svg" xmlns:xlink="http://www.w3.org/1999/xlink" x="0px" y="0px"
	 viewBox="0 0 1920 1080" style="enable-background:new 0 0 1920 1080;" xml:space="preserve">
<style type="text/css">
	.st0{fill:#FFFFFF;}
	.st1{fill:#401689;}
	.st2{fill:#00FFEE;}
	.st3{fill:#6E05FF;}
	.st4{fill:#00B7FF;}
</style>
<g>
	<g>
		<path class="st0" d="M882.2,629.7v96.2h-17.8l-2.2-12.2c-7.3,8.9-17.2,13.3-29.7,13.3c-11.3,0-20.4-3.5-27.4-10.5
			s-10.5-18.3-10.5-33.8v-53h20.3v50.9c0,9.4,1.9,16.5,5.6,21.4c3.8,4.9,9.3,7.3,16.7,7.3c7.8,0,13.8-2.8,18.2-8.6
			c4.4-5.7,6.6-13.5,6.6-23.4v-47.7L882.2,629.7L882.2,629.7z"/>
		<path class="st0" d="M1035.6,638.8c6.6,6.8,10,17.8,10,32.8v54.3h-20.3v-54.1c0-8.4-1.7-14.8-5.1-19.2c-3.4-4.4-8.4-6.6-15-6.6
			c-7,0-12.6,2.5-16.6,7.4c-4.1,4.9-6.1,11.7-6.1,20.4v52H962v-54.1c0-8.5-1.7-14.9-5.2-19.3c-3.5-4.3-8.5-6.5-15.1-6.5
			s-12.4,2.6-16.4,7.7c-4.1,5.1-6.1,12-6.1,20.7v51.5h-20.3v-96.2h17.7l2.2,12.6c6.9-9,16.3-13.6,28.2-13.7c6.8,0,12.7,1.5,17.8,4.3
			c5.1,2.9,9.1,7.3,11.8,13.2c3.4-5.5,7.8-9.8,13.3-12.9s12.1-4.6,19.9-4.6C1020.4,628.6,1029,632,1035.6,638.8L1035.6,638.8z"/>
		<path class="st0" d="M1088,676.7l-34-47h23.7l23.1,32.5l23.5-32.5h22.2l-34.2,47l36.3,49.2h-23.7l-25.4-34.9l-25.6,34.9h-22
			L1088,676.7L1088,676.7z"/>
		<path class="st0" d="M787.1,709.4V727h-22.9c-11.3,0-20.4-3.5-27.4-10.5s-10.5-18.3-10.5-33.8v-53h20.3v50.9
			c0,9.4,1.9,16.5,5.6,21.4c3.8,4.9,9.3,7.3,16.7,7.3L787.1,709.4L787.1,709.4z"/>
	</g>
	<g>
		<path class="st1" d="M832.2,458.2c0,57.6,46.3,104.4,103.7,105.2c-28.3-0.8-51-24.1-51-52.6V405.6c0-28.1,22-51,49.6-52.5
			C877.6,354.6,832.2,401.1,832.2,458.2L832.2,458.2z"/>
		<path class="st2" d="M939,563.5c57.4-0.8,103.7-47.7,103.7-105.2c0-57.1-45.5-103.6-102.2-105.1c27.7,1.5,49.6,24.5,49.6,52.5
			v105.2C990,539.4,967.3,562.6,939,563.5L939,563.5z"/>
		<path class="st3" d="M884.8,405.6v105.2c0,28.5,22.7,51.8,51,52.6c0.5,0,1,0,1.5,0V353c-1,0-2,0-3,0.1
			C906.7,354.6,884.8,377.6,884.8,405.6L884.8,405.6z"/>
		<path class="st4" d="M937.4,353v210.5c0.5,0,1,0,1.6,0c28.3-0.8,51-24.1,51-52.6V405.6c0-28.1-21.9-51-49.6-52.5
			C939.5,353,938.4,353,937.4,353L937.4,353z"/>
	</g>
</g>
</svg>
