<?xml version="1.0" encoding="utf-8"?>
<!-- Generator: Adobe Illustrator 27.7.0, SVG Export Plug-In . SVG Version: 6.00 Build 0)  -->
<svg version="1.1" id="Camada_1" xmlns="http://www.w3.org/2000/svg" xmlns:xlink="http://www.w3.org/1999/xlink" x="0px" y="0px"
	 viewBox="0 0 1920 1080" style="enable-background:new 0 0 1920 1080;" xml:space="preserve">
<style type="text/css">
	.st0{fill:#FFFFFF;}
</style>
<g>
	<path class="st0" d="M947.8,353.5c-1.8-0.2-3.6-0.3-5.5-0.4c-0.2,0-0.5,0-0.7,0c-0.1,0-0.2,0-0.4,0h-0.6c-1-0.1-2.1-0.1-3.1-0.1
		c-1.1,0-2.2,0-3,0.1h-0.3c-0.2,0-0.4,0-0.6,0c-2.2,0-4.4,0.2-6.5,0.4c-53.8,5.1-94.9,49.7-94.9,104.7s41.8,99.5,94.9,104.7
		c2.7,0.3,5.5,0.5,8.3,0.5h0.5h0.4h2.3h0.4h0.5c2.8,0,5.6-0.2,8.3-0.5c53.1-5.2,94.9-50.5,94.9-104.7S1001.6,358.6,947.8,353.5
		L947.8,353.5z M879.7,508.8c0,0.6,0,1.2,0.1,1.8c0,0.7,0.1,1.4,0.2,2.2c0.1,0.5,0.1,1.1,0.2,1.6c0.3,2,0.7,3.9,1.2,5.8
		c0.1,0.5,0.3,1.1,0.4,1.6c-17.7-15.5-29-38.4-29-63.6S864,409.5,882,394c-0.2,0.9-0.5,1.9-0.7,2.9c-0.2,0.8-0.4,1.7-0.5,2.6
		c-0.2,0.9-0.4,1.8-0.5,2.8c-0.2,1.4-0.4,2.8-0.5,4.2c0,0,0,0.1,0,0.2c-0.1,1.4-0.2,2.8-0.2,4.2v94.9
		C879.7,506.7,879.7,507.8,879.7,508.8L879.7,508.8z M927,541.3c-0.1,0-0.1,0-0.2-0.1c-1.9-0.5-3.7-1.2-5.4-2
		c-1.9-0.9-3.7-2-5.4-3.1c-3.1-2.2-5.9-4.9-8.2-7.9c-0.6-0.8-1.2-1.6-1.7-2.4c-1.1-1.7-2-3.3-2.8-5.2c-0.6-1.3-1.1-2.6-1.5-4
		c-0.4-1.2-0.6-2.3-0.9-3.5c-0.3-1.4-0.5-2.9-0.6-4.4c-0.1-1-0.1-2-0.1-3v-94.9c0-1.6,0.1-3.1,0.3-4.6c0-0.7,0.1-1.3,0.3-2
		c0.1-0.8,0.3-1.6,0.5-2.4c0,0,0-0.1,0-0.2c0.2-0.8,0.5-1.6,0.7-2.4c0.1-0.3,0.2-0.6,0.3-0.9c0.2-0.8,0.5-1.5,0.9-2.2
		c0.8-1.8,1.7-3.6,2.8-5.2c0.5-0.9,1.2-1.7,1.8-2.5c0.5-0.7,1.1-1.5,1.8-2.2c0.2-0.3,0.5-0.6,0.7-0.8c0.2-0.3,0.5-0.6,0.8-0.8
		l0.5-0.5c0.1-0.2,0.3-0.3,0.5-0.5c0.5-0.5,1-0.9,1.5-1.4c0.1-0.1,0.2-0.2,0.3-0.2c0.7-0.6,1.4-1.1,2.2-1.6c1.6-1.1,3.2-2.1,4.9-2.9
		c0.4-0.1,0.7-0.3,1-0.5c0.8-0.4,1.6-0.7,2.4-1c0.4-0.1,0.7-0.3,1-0.4c0.5-0.2,0.9-0.3,1.4-0.4L927,541.3L927,541.3z M974.5,505.7
		c0,1,0,2-0.1,3c0,0.9-0.1,1.8-0.3,2.7c0,0.4-0.1,0.8-0.2,1.2c-0.1,0.8-0.3,1.6-0.5,2.3c-0.2,1-0.5,1.9-0.9,2.9
		c-0.3,1-0.6,1.9-1.1,2.8c-0.4,0.9-0.8,1.8-1.3,2.7c-0.4,0.9-0.9,1.7-1.5,2.5c-0.4,0.6-0.8,1.2-1.2,1.8c-0.7,1.1-1.6,2-2.4,2.9
		c-0.6,0.7-1.3,1.4-2,2.1c-0.1,0-0.1,0.1-0.2,0.2c-0.6,0.5-1.2,1.1-1.9,1.7c-1.3,1.1-2.7,2-4.1,2.8c-0.3,0.3-0.6,0.5-1,0.6
		c-1.5,0.9-3.2,1.7-4.8,2.3c-0.4,0.2-0.8,0.3-1.3,0.5c-0.2,0.1-0.5,0.2-0.8,0.3c-0.4,0.1-0.8,0.2-1.2,0.3V375.2
		c0.6,0.1,1.2,0.3,1.8,0.5c2.6,0.9,5.1,2.1,7.4,3.5c0.8,0.5,1.6,1,2.3,1.6c0.8,0.6,1.6,1.2,2.4,1.9c0.2,0.2,0.4,0.3,0.6,0.5
		c0.5,0.4,1,0.9,1.4,1.3c0.4,0.3,0.8,0.8,1.2,1.2c0.6,0.7,1.2,1.4,1.8,2.1c0.7,0.9,1.4,1.8,2,2.8s1.2,1.9,1.7,3
		c0.5,0.9,0.9,1.8,1.3,2.7c0.2,0.5,0.5,1.1,0.6,1.7c0.1,0.3,0.3,0.7,0.4,1.1c0.2,0.6,0.4,1.2,0.5,1.9c0.2,0.5,0.3,1,0.4,1.5
		c0.1,0.5,0.3,1.1,0.4,1.6c0.1,0.7,0.2,1.5,0.3,2.2c0.2,1.5,0.3,3,0.3,4.5L974.5,505.7L974.5,505.7z M993,521.8
		c0.4-1.3,0.7-2.6,1-3.9c0.3-1.3,0.5-2.6,0.7-4c0.2-1.2,0.3-2.3,0.4-3.5c0-0.5,0.1-1.1,0.1-1.6c0-1.1,0.1-2.1,0.1-3.1v-94.9
		c0-1.4,0-2.8-0.2-4.2c0,0,0-0.1,0-0.2c-0.1-1.4-0.2-2.8-0.5-4.2c-0.2-1.3-0.5-2.7-0.8-4v-0.1c-0.3-1.3-0.6-2.7-1-4
		c17.9,15.4,29.2,38.4,29.2,64.1S1010.7,506.2,993,521.8L993,521.8z"/>
	<g>
		<path class="st0" d="M882.2,629.7v96.2h-17.8l-2.2-12.2c-7.3,8.9-17.2,13.3-29.7,13.3c-11.3,0-20.4-3.5-27.4-10.5
			s-10.5-18.3-10.5-33.8v-53h20.3v50.9c0,9.4,1.9,16.5,5.6,21.4c3.8,4.9,9.3,7.3,16.7,7.3c7.8,0,13.8-2.8,18.2-8.6
			c4.4-5.7,6.6-13.5,6.6-23.4v-47.7L882.2,629.7L882.2,629.7z"/>
		<path class="st0" d="M1035.6,638.8c6.6,6.8,10,17.8,10,32.8v54.3h-20.3v-54.1c0-8.4-1.7-14.8-5.1-19.2c-3.4-4.4-8.4-6.6-15-6.6
			c-7,0-12.6,2.5-16.6,7.4c-4.1,4.9-6.1,11.7-6.1,20.4v52H962v-54.1c0-8.5-1.7-14.9-5.2-19.3c-3.5-4.3-8.5-6.5-15.1-6.5
			s-12.4,2.6-16.4,7.7c-4.1,5.1-6.1,12-6.1,20.7v51.5h-20.3v-96.2h17.7l2.2,12.6c6.9-9,16.3-13.6,28.2-13.7c6.8,0,12.7,1.5,17.8,4.3
			c5.1,2.9,9.1,7.3,11.8,13.2c3.4-5.5,7.8-9.8,13.3-12.9s12.1-4.6,19.9-4.6C1020.4,628.6,1029,632,1035.6,638.8L1035.6,638.8z"/>
		<path class="st0" d="M1088,676.7l-34-47h23.7l23.1,32.5l23.5-32.5h22.2l-34.2,47l36.3,49.2h-23.7l-25.4-34.9l-25.6,34.9h-22
			L1088,676.7L1088,676.7z"/>
		<path class="st0" d="M787.1,709.4V727h-22.9c-11.3,0-20.4-3.5-27.4-10.5s-10.5-18.3-10.5-33.8v-53h20.3v50.9
			c0,9.4,1.9,16.5,5.6,21.4c3.8,4.9,9.3,7.3,16.7,7.3L787.1,709.4L787.1,709.4z"/>
	</g>
</g>
</svg>
